<mxfile host="app.diagrams.net" modified="2022-10-08T03:28:18.706Z" agent="5.0 (Windows NT 10.0; Win64; x64) AppleWebKit/537.36 (KHTML, like Gecko) Chrome/106.0.0.0 Safari/537.36" etag="Z4cUwIfz53XgOIololVH" version="20.3.2" type="github">
  <diagram id="C5RBs43oDa-KdzZeNtuy" name="Page-1">
    <mxGraphModel dx="3793" dy="1540" grid="1" gridSize="10" guides="1" tooltips="1" connect="1" arrows="1" fold="1" page="1" pageScale="1" pageWidth="827" pageHeight="1169" math="0" shadow="0">
      <root>
        <mxCell id="WIyWlLk6GJQsqaUBKTNV-0" />
        <mxCell id="WIyWlLk6GJQsqaUBKTNV-1" parent="WIyWlLk6GJQsqaUBKTNV-0" />
        <mxCell id="hpItHDshXoNdx86V0tzH-2" value="" style="edgeStyle=orthogonalEdgeStyle;rounded=0;orthogonalLoop=1;jettySize=auto;html=1;" edge="1" parent="WIyWlLk6GJQsqaUBKTNV-1" source="hpItHDshXoNdx86V0tzH-0" target="hpItHDshXoNdx86V0tzH-1">
          <mxGeometry relative="1" as="geometry" />
        </mxCell>
        <mxCell id="hpItHDshXoNdx86V0tzH-0" value="start&lt;br&gt;struct Birthday" style="ellipse;whiteSpace=wrap;html=1;" vertex="1" parent="WIyWlLk6GJQsqaUBKTNV-1">
          <mxGeometry x="-640" y="45" width="120" height="50" as="geometry" />
        </mxCell>
        <mxCell id="hpItHDshXoNdx86V0tzH-4" value="" style="edgeStyle=orthogonalEdgeStyle;rounded=0;orthogonalLoop=1;jettySize=auto;html=1;" edge="1" parent="WIyWlLk6GJQsqaUBKTNV-1" source="hpItHDshXoNdx86V0tzH-1" target="hpItHDshXoNdx86V0tzH-3">
          <mxGeometry relative="1" as="geometry" />
        </mxCell>
        <mxCell id="hpItHDshXoNdx86V0tzH-1" value="int number" style="whiteSpace=wrap;html=1;" vertex="1" parent="WIyWlLk6GJQsqaUBKTNV-1">
          <mxGeometry x="-640" y="125" width="120" height="30" as="geometry" />
        </mxCell>
        <mxCell id="hpItHDshXoNdx86V0tzH-6" value="" style="edgeStyle=orthogonalEdgeStyle;rounded=0;orthogonalLoop=1;jettySize=auto;html=1;" edge="1" parent="WIyWlLk6GJQsqaUBKTNV-1" source="hpItHDshXoNdx86V0tzH-3" target="hpItHDshXoNdx86V0tzH-5">
          <mxGeometry relative="1" as="geometry" />
        </mxCell>
        <mxCell id="hpItHDshXoNdx86V0tzH-3" value="char name[100]" style="whiteSpace=wrap;html=1;" vertex="1" parent="WIyWlLk6GJQsqaUBKTNV-1">
          <mxGeometry x="-640" y="175" width="120" height="30" as="geometry" />
        </mxCell>
        <mxCell id="hpItHDshXoNdx86V0tzH-8" value="" style="edgeStyle=orthogonalEdgeStyle;rounded=0;orthogonalLoop=1;jettySize=auto;html=1;" edge="1" parent="WIyWlLk6GJQsqaUBKTNV-1" source="hpItHDshXoNdx86V0tzH-5" target="hpItHDshXoNdx86V0tzH-7">
          <mxGeometry relative="1" as="geometry" />
        </mxCell>
        <mxCell id="hpItHDshXoNdx86V0tzH-5" value="int&amp;nbsp; years" style="whiteSpace=wrap;html=1;" vertex="1" parent="WIyWlLk6GJQsqaUBKTNV-1">
          <mxGeometry x="-640" y="225" width="120" height="30" as="geometry" />
        </mxCell>
        <mxCell id="hpItHDshXoNdx86V0tzH-10" value="" style="edgeStyle=orthogonalEdgeStyle;rounded=0;orthogonalLoop=1;jettySize=auto;html=1;" edge="1" parent="WIyWlLk6GJQsqaUBKTNV-1" source="hpItHDshXoNdx86V0tzH-7" target="hpItHDshXoNdx86V0tzH-9">
          <mxGeometry relative="1" as="geometry" />
        </mxCell>
        <mxCell id="hpItHDshXoNdx86V0tzH-7" value="int&amp;nbsp; month" style="whiteSpace=wrap;html=1;" vertex="1" parent="WIyWlLk6GJQsqaUBKTNV-1">
          <mxGeometry x="-640" y="285" width="120" height="30" as="geometry" />
        </mxCell>
        <mxCell id="hpItHDshXoNdx86V0tzH-12" value="" style="edgeStyle=orthogonalEdgeStyle;rounded=0;orthogonalLoop=1;jettySize=auto;html=1;" edge="1" parent="WIyWlLk6GJQsqaUBKTNV-1" source="hpItHDshXoNdx86V0tzH-9" target="hpItHDshXoNdx86V0tzH-11">
          <mxGeometry relative="1" as="geometry" />
        </mxCell>
        <mxCell id="hpItHDshXoNdx86V0tzH-9" value="int&amp;nbsp; day" style="whiteSpace=wrap;html=1;" vertex="1" parent="WIyWlLk6GJQsqaUBKTNV-1">
          <mxGeometry x="-640" y="345" width="120" height="30" as="geometry" />
        </mxCell>
        <mxCell id="hpItHDshXoNdx86V0tzH-14" value="" style="edgeStyle=orthogonalEdgeStyle;rounded=0;orthogonalLoop=1;jettySize=auto;html=1;" edge="1" parent="WIyWlLk6GJQsqaUBKTNV-1" source="hpItHDshXoNdx86V0tzH-11" target="hpItHDshXoNdx86V0tzH-13">
          <mxGeometry relative="1" as="geometry" />
        </mxCell>
        <mxCell id="hpItHDshXoNdx86V0tzH-11" value="int&amp;nbsp; daylife" style="whiteSpace=wrap;html=1;" vertex="1" parent="WIyWlLk6GJQsqaUBKTNV-1">
          <mxGeometry x="-640" y="405" width="120" height="30" as="geometry" />
        </mxCell>
        <mxCell id="hpItHDshXoNdx86V0tzH-16" value="" style="edgeStyle=orthogonalEdgeStyle;rounded=0;orthogonalLoop=1;jettySize=auto;html=1;" edge="1" parent="WIyWlLk6GJQsqaUBKTNV-1" source="hpItHDshXoNdx86V0tzH-13">
          <mxGeometry relative="1" as="geometry">
            <mxPoint x="-580" y="525" as="targetPoint" />
          </mxGeometry>
        </mxCell>
        <mxCell id="hpItHDshXoNdx86V0tzH-13" value="typedef bi&amp;nbsp;" style="whiteSpace=wrap;html=1;" vertex="1" parent="WIyWlLk6GJQsqaUBKTNV-1">
          <mxGeometry x="-640" y="465" width="120" height="30" as="geometry" />
        </mxCell>
        <mxCell id="hpItHDshXoNdx86V0tzH-15" value="end" style="ellipse;whiteSpace=wrap;html=1;" vertex="1" parent="WIyWlLk6GJQsqaUBKTNV-1">
          <mxGeometry x="-640" y="525" width="120" height="60" as="geometry" />
        </mxCell>
        <mxCell id="hpItHDshXoNdx86V0tzH-19" value="" style="edgeStyle=orthogonalEdgeStyle;rounded=0;orthogonalLoop=1;jettySize=auto;html=1;" edge="1" parent="WIyWlLk6GJQsqaUBKTNV-1" source="hpItHDshXoNdx86V0tzH-17" target="hpItHDshXoNdx86V0tzH-18">
          <mxGeometry relative="1" as="geometry" />
        </mxCell>
        <mxCell id="hpItHDshXoNdx86V0tzH-17" value="start&lt;br&gt;funtion main" style="ellipse;whiteSpace=wrap;html=1;" vertex="1" parent="WIyWlLk6GJQsqaUBKTNV-1">
          <mxGeometry x="-380" y="45" width="120" height="50" as="geometry" />
        </mxCell>
        <mxCell id="hpItHDshXoNdx86V0tzH-21" value="" style="edgeStyle=orthogonalEdgeStyle;rounded=0;orthogonalLoop=1;jettySize=auto;html=1;" edge="1" parent="WIyWlLk6GJQsqaUBKTNV-1" source="hpItHDshXoNdx86V0tzH-18" target="hpItHDshXoNdx86V0tzH-20">
          <mxGeometry relative="1" as="geometry" />
        </mxCell>
        <mxCell id="hpItHDshXoNdx86V0tzH-18" value="int&amp;nbsp; number" style="whiteSpace=wrap;html=1;" vertex="1" parent="WIyWlLk6GJQsqaUBKTNV-1">
          <mxGeometry x="-380" y="125" width="120" height="30" as="geometry" />
        </mxCell>
        <mxCell id="hpItHDshXoNdx86V0tzH-30" value="" style="edgeStyle=orthogonalEdgeStyle;rounded=0;orthogonalLoop=1;jettySize=auto;html=1;" edge="1" parent="WIyWlLk6GJQsqaUBKTNV-1" source="hpItHDshXoNdx86V0tzH-20" target="hpItHDshXoNdx86V0tzH-29">
          <mxGeometry relative="1" as="geometry" />
        </mxCell>
        <mxCell id="hpItHDshXoNdx86V0tzH-20" value="bi personer[100]" style="whiteSpace=wrap;html=1;" vertex="1" parent="WIyWlLk6GJQsqaUBKTNV-1">
          <mxGeometry x="-380" y="175" width="120" height="30" as="geometry" />
        </mxCell>
        <mxCell id="hpItHDshXoNdx86V0tzH-32" value="" style="edgeStyle=orthogonalEdgeStyle;rounded=0;orthogonalLoop=1;jettySize=auto;html=1;" edge="1" parent="WIyWlLk6GJQsqaUBKTNV-1" source="hpItHDshXoNdx86V0tzH-29" target="hpItHDshXoNdx86V0tzH-31">
          <mxGeometry relative="1" as="geometry" />
        </mxCell>
        <mxCell id="hpItHDshXoNdx86V0tzH-29" value="number = input_data&lt;br&gt;&amp;nbsp;( personer )" style="shape=process;whiteSpace=wrap;html=1;backgroundOutline=1;fillColor=#dae8fc;strokeColor=#6c8ebf;" vertex="1" parent="WIyWlLk6GJQsqaUBKTNV-1">
          <mxGeometry x="-400" y="225" width="160" height="50" as="geometry" />
        </mxCell>
        <mxCell id="hpItHDshXoNdx86V0tzH-34" value="" style="edgeStyle=orthogonalEdgeStyle;rounded=0;orthogonalLoop=1;jettySize=auto;html=1;" edge="1" parent="WIyWlLk6GJQsqaUBKTNV-1" source="hpItHDshXoNdx86V0tzH-31" target="hpItHDshXoNdx86V0tzH-33">
          <mxGeometry relative="1" as="geometry" />
        </mxCell>
        <mxCell id="hpItHDshXoNdx86V0tzH-31" value="output_data &lt;br&gt;( personer, number )" style="shape=process;whiteSpace=wrap;html=1;backgroundOutline=1;fillColor=#d5e8d4;strokeColor=#82b366;" vertex="1" parent="WIyWlLk6GJQsqaUBKTNV-1">
          <mxGeometry x="-400" y="295" width="160" height="50" as="geometry" />
        </mxCell>
        <mxCell id="hpItHDshXoNdx86V0tzH-36" value="" style="edgeStyle=orthogonalEdgeStyle;rounded=0;orthogonalLoop=1;jettySize=auto;html=1;" edge="1" parent="WIyWlLk6GJQsqaUBKTNV-1" source="hpItHDshXoNdx86V0tzH-33" target="hpItHDshXoNdx86V0tzH-35">
          <mxGeometry relative="1" as="geometry" />
        </mxCell>
        <mxCell id="hpItHDshXoNdx86V0tzH-33" value="maxmin_age &lt;br&gt;(&amp;nbsp; personer, number )" style="shape=process;whiteSpace=wrap;html=1;backgroundOutline=1;fillColor=#ffe6cc;strokeColor=#d79b00;" vertex="1" parent="WIyWlLk6GJQsqaUBKTNV-1">
          <mxGeometry x="-400" y="365" width="160" height="50" as="geometry" />
        </mxCell>
        <mxCell id="hpItHDshXoNdx86V0tzH-38" value="" style="edgeStyle=orthogonalEdgeStyle;rounded=0;orthogonalLoop=1;jettySize=auto;html=1;" edge="1" parent="WIyWlLk6GJQsqaUBKTNV-1" source="hpItHDshXoNdx86V0tzH-35" target="hpItHDshXoNdx86V0tzH-37">
          <mxGeometry relative="1" as="geometry" />
        </mxCell>
        <mxCell id="hpItHDshXoNdx86V0tzH-35" value="return 0" style="whiteSpace=wrap;html=1;" vertex="1" parent="WIyWlLk6GJQsqaUBKTNV-1">
          <mxGeometry x="-400" y="435" width="160" height="40" as="geometry" />
        </mxCell>
        <mxCell id="hpItHDshXoNdx86V0tzH-37" value="end&lt;br&gt;funtion main" style="ellipse;whiteSpace=wrap;html=1;" vertex="1" parent="WIyWlLk6GJQsqaUBKTNV-1">
          <mxGeometry x="-380" y="505" width="120" height="60" as="geometry" />
        </mxCell>
        <mxCell id="hpItHDshXoNdx86V0tzH-41" value="" style="edgeStyle=orthogonalEdgeStyle;rounded=0;orthogonalLoop=1;jettySize=auto;html=1;" edge="1" parent="WIyWlLk6GJQsqaUBKTNV-1" source="hpItHDshXoNdx86V0tzH-39" target="hpItHDshXoNdx86V0tzH-40">
          <mxGeometry relative="1" as="geometry" />
        </mxCell>
        <mxCell id="hpItHDshXoNdx86V0tzH-39" value="start&lt;br&gt;input_data" style="ellipse;whiteSpace=wrap;html=1;fillColor=#dae8fc;strokeColor=#6c8ebf;" vertex="1" parent="WIyWlLk6GJQsqaUBKTNV-1">
          <mxGeometry x="220" y="45" width="120" height="50" as="geometry" />
        </mxCell>
        <mxCell id="hpItHDshXoNdx86V0tzH-43" value="" style="edgeStyle=orthogonalEdgeStyle;rounded=0;orthogonalLoop=1;jettySize=auto;html=1;" edge="1" parent="WIyWlLk6GJQsqaUBKTNV-1" source="hpItHDshXoNdx86V0tzH-40" target="hpItHDshXoNdx86V0tzH-42">
          <mxGeometry relative="1" as="geometry" />
        </mxCell>
        <mxCell id="hpItHDshXoNdx86V0tzH-40" value="FILE *fp" style="whiteSpace=wrap;html=1;fillColor=#dae8fc;strokeColor=#6c8ebf;" vertex="1" parent="WIyWlLk6GJQsqaUBKTNV-1">
          <mxGeometry x="220" y="125" width="120" height="30" as="geometry" />
        </mxCell>
        <mxCell id="hpItHDshXoNdx86V0tzH-45" value="" style="edgeStyle=orthogonalEdgeStyle;rounded=0;orthogonalLoop=1;jettySize=auto;html=1;" edge="1" parent="WIyWlLk6GJQsqaUBKTNV-1" source="hpItHDshXoNdx86V0tzH-42" target="hpItHDshXoNdx86V0tzH-44">
          <mxGeometry relative="1" as="geometry" />
        </mxCell>
        <mxCell id="hpItHDshXoNdx86V0tzH-42" value="char header[100]" style="whiteSpace=wrap;html=1;fillColor=#dae8fc;strokeColor=#6c8ebf;" vertex="1" parent="WIyWlLk6GJQsqaUBKTNV-1">
          <mxGeometry x="220" y="185" width="120" height="30" as="geometry" />
        </mxCell>
        <mxCell id="hpItHDshXoNdx86V0tzH-47" value="" style="edgeStyle=orthogonalEdgeStyle;rounded=0;orthogonalLoop=1;jettySize=auto;html=1;" edge="1" parent="WIyWlLk6GJQsqaUBKTNV-1" source="hpItHDshXoNdx86V0tzH-44" target="hpItHDshXoNdx86V0tzH-46">
          <mxGeometry relative="1" as="geometry" />
        </mxCell>
        <mxCell id="hpItHDshXoNdx86V0tzH-44" value="int number" style="whiteSpace=wrap;html=1;fillColor=#dae8fc;strokeColor=#6c8ebf;" vertex="1" parent="WIyWlLk6GJQsqaUBKTNV-1">
          <mxGeometry x="220" y="235" width="120" height="30" as="geometry" />
        </mxCell>
        <mxCell id="hpItHDshXoNdx86V0tzH-53" value="" style="edgeStyle=orthogonalEdgeStyle;rounded=0;orthogonalLoop=1;jettySize=auto;html=1;" edge="1" parent="WIyWlLk6GJQsqaUBKTNV-1" source="hpItHDshXoNdx86V0tzH-46" target="hpItHDshXoNdx86V0tzH-52">
          <mxGeometry relative="1" as="geometry" />
        </mxCell>
        <mxCell id="hpItHDshXoNdx86V0tzH-46" value="fp = fopen(&quot;a.txt&quot; , &quot;r&quot;)" style="whiteSpace=wrap;html=1;fillColor=#dae8fc;strokeColor=#6c8ebf;" vertex="1" parent="WIyWlLk6GJQsqaUBKTNV-1">
          <mxGeometry x="210" y="295" width="140" height="30" as="geometry" />
        </mxCell>
        <mxCell id="hpItHDshXoNdx86V0tzH-55" value="" style="edgeStyle=orthogonalEdgeStyle;rounded=0;orthogonalLoop=1;jettySize=auto;html=1;" edge="1" parent="WIyWlLk6GJQsqaUBKTNV-1" source="hpItHDshXoNdx86V0tzH-52" target="hpItHDshXoNdx86V0tzH-54">
          <mxGeometry relative="1" as="geometry" />
        </mxCell>
        <mxCell id="hpItHDshXoNdx86V0tzH-61" value="" style="edgeStyle=orthogonalEdgeStyle;rounded=0;orthogonalLoop=1;jettySize=auto;html=1;" edge="1" parent="WIyWlLk6GJQsqaUBKTNV-1" source="hpItHDshXoNdx86V0tzH-52" target="hpItHDshXoNdx86V0tzH-54">
          <mxGeometry relative="1" as="geometry" />
        </mxCell>
        <mxCell id="hpItHDshXoNdx86V0tzH-52" value="" style="shape=waypoint;sketch=0;size=6;pointerEvents=1;points=[];fillColor=#dae8fc;resizable=0;rotatable=0;perimeter=centerPerimeter;snapToPoint=1;strokeColor=#6c8ebf;" vertex="1" parent="WIyWlLk6GJQsqaUBKTNV-1">
          <mxGeometry x="260" y="325" width="40" height="40" as="geometry" />
        </mxCell>
        <mxCell id="hpItHDshXoNdx86V0tzH-57" value="" style="edgeStyle=orthogonalEdgeStyle;rounded=0;orthogonalLoop=1;jettySize=auto;html=1;" edge="1" parent="WIyWlLk6GJQsqaUBKTNV-1" source="hpItHDshXoNdx86V0tzH-54" target="hpItHDshXoNdx86V0tzH-56">
          <mxGeometry relative="1" as="geometry" />
        </mxCell>
        <mxCell id="hpItHDshXoNdx86V0tzH-54" value="fp == NULL" style="rhombus;whiteSpace=wrap;html=1;fillColor=#dae8fc;strokeColor=#6c8ebf;sketch=0;direction=west;" vertex="1" parent="WIyWlLk6GJQsqaUBKTNV-1">
          <mxGeometry x="215" y="375" width="130" height="80" as="geometry" />
        </mxCell>
        <mxCell id="hpItHDshXoNdx86V0tzH-59" value="" style="edgeStyle=orthogonalEdgeStyle;rounded=0;orthogonalLoop=1;jettySize=auto;html=1;" edge="1" parent="WIyWlLk6GJQsqaUBKTNV-1" source="hpItHDshXoNdx86V0tzH-56" target="hpItHDshXoNdx86V0tzH-58">
          <mxGeometry relative="1" as="geometry" />
        </mxCell>
        <mxCell id="hpItHDshXoNdx86V0tzH-56" value="File Not Found" style="shape=parallelogram;perimeter=parallelogramPerimeter;whiteSpace=wrap;html=1;fixedSize=1;fillColor=#dae8fc;strokeColor=#6c8ebf;sketch=0;" vertex="1" parent="WIyWlLk6GJQsqaUBKTNV-1">
          <mxGeometry x="177.5" y="485" width="205" height="30" as="geometry" />
        </mxCell>
        <mxCell id="hpItHDshXoNdx86V0tzH-58" value="exit ( 0 )" style="whiteSpace=wrap;html=1;fillColor=#dae8fc;strokeColor=#6c8ebf;sketch=0;" vertex="1" parent="WIyWlLk6GJQsqaUBKTNV-1">
          <mxGeometry x="180" y="537.5" width="200" height="35" as="geometry" />
        </mxCell>
        <mxCell id="hpItHDshXoNdx86V0tzH-60" value="" style="endArrow=classic;html=1;rounded=0;exitX=0.5;exitY=1;exitDx=0;exitDy=0;" edge="1" parent="WIyWlLk6GJQsqaUBKTNV-1" source="hpItHDshXoNdx86V0tzH-58" target="hpItHDshXoNdx86V0tzH-52">
          <mxGeometry width="50" height="50" relative="1" as="geometry">
            <mxPoint x="270" y="775" as="sourcePoint" />
            <mxPoint x="160" y="345" as="targetPoint" />
            <Array as="points">
              <mxPoint x="280" y="585" />
              <mxPoint x="160" y="585" />
              <mxPoint x="160" y="345" />
            </Array>
          </mxGeometry>
        </mxCell>
        <mxCell id="hpItHDshXoNdx86V0tzH-62" value="" style="endArrow=classic;html=1;rounded=0;exitX=0;exitY=0.5;exitDx=0;exitDy=0;" edge="1" parent="WIyWlLk6GJQsqaUBKTNV-1" source="hpItHDshXoNdx86V0tzH-54">
          <mxGeometry width="50" height="50" relative="1" as="geometry">
            <mxPoint x="20" y="525" as="sourcePoint" />
            <mxPoint x="280" y="625" as="targetPoint" />
            <Array as="points">
              <mxPoint x="380" y="415" />
              <mxPoint x="390" y="415" />
              <mxPoint x="390" y="495" />
              <mxPoint x="390" y="585" />
              <mxPoint x="390" y="605" />
              <mxPoint x="280" y="605" />
            </Array>
          </mxGeometry>
        </mxCell>
        <mxCell id="hpItHDshXoNdx86V0tzH-65" value="T" style="text;html=1;strokeColor=none;fillColor=none;align=center;verticalAlign=middle;whiteSpace=wrap;rounded=0;" vertex="1" parent="WIyWlLk6GJQsqaUBKTNV-1">
          <mxGeometry x="260" y="455" width="60" height="30" as="geometry" />
        </mxCell>
        <mxCell id="hpItHDshXoNdx86V0tzH-66" value="F" style="text;html=1;strokeColor=none;fillColor=none;align=center;verticalAlign=middle;whiteSpace=wrap;rounded=0;" vertex="1" parent="WIyWlLk6GJQsqaUBKTNV-1">
          <mxGeometry x="320" y="385" width="70" height="30" as="geometry" />
        </mxCell>
        <mxCell id="hpItHDshXoNdx86V0tzH-75" value="" style="edgeStyle=orthogonalEdgeStyle;rounded=0;orthogonalLoop=1;jettySize=auto;html=1;" edge="1" parent="WIyWlLk6GJQsqaUBKTNV-1" source="hpItHDshXoNdx86V0tzH-68" target="hpItHDshXoNdx86V0tzH-74">
          <mxGeometry relative="1" as="geometry" />
        </mxCell>
        <mxCell id="hpItHDshXoNdx86V0tzH-68" value="fscanf ( fp, &quot;%s\t%s\t\t%s\n&quot;, &lt;br&gt;header, header, header )" style="rounded=0;whiteSpace=wrap;html=1;fillColor=#dae8fc;strokeColor=#6c8ebf;" vertex="1" parent="WIyWlLk6GJQsqaUBKTNV-1">
          <mxGeometry x="181.5" y="625" width="197" height="60" as="geometry" />
        </mxCell>
        <mxCell id="hpItHDshXoNdx86V0tzH-78" value="" style="edgeStyle=orthogonalEdgeStyle;rounded=0;orthogonalLoop=1;jettySize=auto;html=1;" edge="1" parent="WIyWlLk6GJQsqaUBKTNV-1" source="hpItHDshXoNdx86V0tzH-72" target="hpItHDshXoNdx86V0tzH-77">
          <mxGeometry relative="1" as="geometry" />
        </mxCell>
        <mxCell id="hpItHDshXoNdx86V0tzH-72" value="int i = 0 ; i &amp;lt; 100 ; i++" style="rhombus;whiteSpace=wrap;html=1;fillColor=#dae8fc;strokeColor=#6c8ebf;rounded=0;" vertex="1" parent="WIyWlLk6GJQsqaUBKTNV-1">
          <mxGeometry x="180" y="725" width="200" height="80" as="geometry" />
        </mxCell>
        <mxCell id="hpItHDshXoNdx86V0tzH-76" value="" style="edgeStyle=orthogonalEdgeStyle;rounded=0;orthogonalLoop=1;jettySize=auto;html=1;" edge="1" parent="WIyWlLk6GJQsqaUBKTNV-1" source="hpItHDshXoNdx86V0tzH-74" target="hpItHDshXoNdx86V0tzH-72">
          <mxGeometry relative="1" as="geometry">
            <Array as="points">
              <mxPoint x="280" y="765" />
              <mxPoint x="280" y="765" />
            </Array>
          </mxGeometry>
        </mxCell>
        <mxCell id="hpItHDshXoNdx86V0tzH-74" value="" style="shape=waypoint;sketch=0;size=6;pointerEvents=1;points=[];fillColor=#dae8fc;resizable=0;rotatable=0;perimeter=centerPerimeter;snapToPoint=1;strokeColor=#6c8ebf;rounded=0;" vertex="1" parent="WIyWlLk6GJQsqaUBKTNV-1">
          <mxGeometry x="260" y="685" width="40" height="40" as="geometry" />
        </mxCell>
        <mxCell id="hpItHDshXoNdx86V0tzH-80" value="" style="edgeStyle=orthogonalEdgeStyle;rounded=0;orthogonalLoop=1;jettySize=auto;html=1;" edge="1" parent="WIyWlLk6GJQsqaUBKTNV-1" source="hpItHDshXoNdx86V0tzH-77" target="hpItHDshXoNdx86V0tzH-79">
          <mxGeometry relative="1" as="geometry">
            <Array as="points">
              <mxPoint x="280" y="905" />
              <mxPoint x="280" y="905" />
            </Array>
          </mxGeometry>
        </mxCell>
        <mxCell id="hpItHDshXoNdx86V0tzH-77" value="" style="shape=waypoint;sketch=0;size=6;pointerEvents=1;points=[];fillColor=#dae8fc;resizable=0;rotatable=0;perimeter=centerPerimeter;snapToPoint=1;strokeColor=#6c8ebf;rounded=0;" vertex="1" parent="WIyWlLk6GJQsqaUBKTNV-1">
          <mxGeometry x="260" y="805" width="40" height="40" as="geometry" />
        </mxCell>
        <mxCell id="hpItHDshXoNdx86V0tzH-82" value="" style="edgeStyle=orthogonalEdgeStyle;rounded=0;orthogonalLoop=1;jettySize=auto;html=1;" edge="1" parent="WIyWlLk6GJQsqaUBKTNV-1" source="hpItHDshXoNdx86V0tzH-79" target="hpItHDshXoNdx86V0tzH-81">
          <mxGeometry relative="1" as="geometry" />
        </mxCell>
        <mxCell id="hpItHDshXoNdx86V0tzH-85" value="" style="edgeStyle=orthogonalEdgeStyle;rounded=0;orthogonalLoop=1;jettySize=auto;html=1;" edge="1" parent="WIyWlLk6GJQsqaUBKTNV-1" source="hpItHDshXoNdx86V0tzH-79" target="hpItHDshXoNdx86V0tzH-84">
          <mxGeometry relative="1" as="geometry" />
        </mxCell>
        <mxCell id="hpItHDshXoNdx86V0tzH-79" value="fscanf(fp, &quot;%d\t%s\t\t%d-%d-%d\n&quot; , &amp;amp;personer[i].number, personer[i].name, &amp;amp;personer[i].years, &amp;amp;personer[i].month, &amp;amp;personer[i].day ) != EOF" style="rhombus;whiteSpace=wrap;html=1;fillColor=#dae8fc;strokeColor=#6c8ebf;sketch=0;rounded=0;" vertex="1" parent="WIyWlLk6GJQsqaUBKTNV-1">
          <mxGeometry x="40" y="845" width="480" height="180" as="geometry" />
        </mxCell>
        <mxCell id="hpItHDshXoNdx86V0tzH-81" value="number++" style="whiteSpace=wrap;html=1;fillColor=#dae8fc;strokeColor=#6c8ebf;sketch=0;rounded=0;" vertex="1" parent="WIyWlLk6GJQsqaUBKTNV-1">
          <mxGeometry x="200" y="1040" width="160" height="40" as="geometry" />
        </mxCell>
        <mxCell id="hpItHDshXoNdx86V0tzH-83" value="" style="endArrow=classic;html=1;rounded=0;exitX=0;exitY=0.5;exitDx=0;exitDy=0;entryX=0.389;entryY=0.525;entryDx=0;entryDy=0;entryPerimeter=0;" edge="1" parent="WIyWlLk6GJQsqaUBKTNV-1" source="hpItHDshXoNdx86V0tzH-81" target="hpItHDshXoNdx86V0tzH-77">
          <mxGeometry width="50" height="50" relative="1" as="geometry">
            <mxPoint x="270" y="1000" as="sourcePoint" />
            <mxPoint x="30" y="770" as="targetPoint" />
            <Array as="points">
              <mxPoint x="30" y="1060" />
              <mxPoint x="30" y="825" />
            </Array>
          </mxGeometry>
        </mxCell>
        <mxCell id="hpItHDshXoNdx86V0tzH-84" value="break&amp;nbsp;" style="whiteSpace=wrap;html=1;fillColor=#dae8fc;strokeColor=#6c8ebf;sketch=0;rounded=0;" vertex="1" parent="WIyWlLk6GJQsqaUBKTNV-1">
          <mxGeometry x="570" y="912.5" width="120" height="45" as="geometry" />
        </mxCell>
        <mxCell id="hpItHDshXoNdx86V0tzH-87" value="" style="endArrow=classic;html=1;rounded=0;exitX=0.5;exitY=1;exitDx=0;exitDy=0;entryX=0.37;entryY=0.416;entryDx=0;entryDy=0;entryPerimeter=0;" edge="1" parent="WIyWlLk6GJQsqaUBKTNV-1" source="hpItHDshXoNdx86V0tzH-84" target="hpItHDshXoNdx86V0tzH-74">
          <mxGeometry width="50" height="50" relative="1" as="geometry">
            <mxPoint x="400" y="1000" as="sourcePoint" />
            <mxPoint x="100" y="730" as="targetPoint" />
            <Array as="points">
              <mxPoint x="630" y="1100" />
              <mxPoint x="10" y="1100" />
              <mxPoint x="10" y="710" />
            </Array>
          </mxGeometry>
        </mxCell>
        <mxCell id="hpItHDshXoNdx86V0tzH-88" value="" style="endArrow=classic;html=1;rounded=0;exitX=1;exitY=0.5;exitDx=0;exitDy=0;" edge="1" parent="WIyWlLk6GJQsqaUBKTNV-1" source="hpItHDshXoNdx86V0tzH-72" target="hpItHDshXoNdx86V0tzH-94">
          <mxGeometry width="50" height="50" relative="1" as="geometry">
            <mxPoint x="360" y="720" as="sourcePoint" />
            <mxPoint x="280" y="1160" as="targetPoint" />
            <Array as="points">
              <mxPoint x="720" y="770" />
              <mxPoint x="720" y="1120" />
              <mxPoint x="280" y="1120" />
            </Array>
          </mxGeometry>
        </mxCell>
        <mxCell id="hpItHDshXoNdx86V0tzH-90" value="Y" style="text;html=1;align=center;verticalAlign=middle;resizable=0;points=[];autosize=1;strokeColor=none;fillColor=none;" vertex="1" parent="WIyWlLk6GJQsqaUBKTNV-1">
          <mxGeometry x="399" y="735" width="30" height="30" as="geometry" />
        </mxCell>
        <mxCell id="hpItHDshXoNdx86V0tzH-91" value="Y" style="text;html=1;align=center;verticalAlign=middle;resizable=0;points=[];autosize=1;strokeColor=none;fillColor=none;" vertex="1" parent="WIyWlLk6GJQsqaUBKTNV-1">
          <mxGeometry x="530" y="910" width="30" height="30" as="geometry" />
        </mxCell>
        <mxCell id="hpItHDshXoNdx86V0tzH-92" value="T" style="text;html=1;align=center;verticalAlign=middle;resizable=0;points=[];autosize=1;strokeColor=none;fillColor=none;" vertex="1" parent="WIyWlLk6GJQsqaUBKTNV-1">
          <mxGeometry x="275" y="800" width="30" height="30" as="geometry" />
        </mxCell>
        <mxCell id="hpItHDshXoNdx86V0tzH-93" value="T" style="text;html=1;align=center;verticalAlign=middle;resizable=0;points=[];autosize=1;strokeColor=none;fillColor=none;" vertex="1" parent="WIyWlLk6GJQsqaUBKTNV-1">
          <mxGeometry x="275" y="1020" width="30" height="30" as="geometry" />
        </mxCell>
        <mxCell id="hpItHDshXoNdx86V0tzH-96" value="" style="edgeStyle=orthogonalEdgeStyle;rounded=0;orthogonalLoop=1;jettySize=auto;html=1;" edge="1" parent="WIyWlLk6GJQsqaUBKTNV-1" source="hpItHDshXoNdx86V0tzH-94" target="hpItHDshXoNdx86V0tzH-95">
          <mxGeometry relative="1" as="geometry" />
        </mxCell>
        <mxCell id="hpItHDshXoNdx86V0tzH-94" value="fclose (fp)" style="rounded=0;whiteSpace=wrap;html=1;fillColor=#dae8fc;strokeColor=#6c8ebf;" vertex="1" parent="WIyWlLk6GJQsqaUBKTNV-1">
          <mxGeometry x="215" y="1190" width="130" height="40" as="geometry" />
        </mxCell>
        <mxCell id="hpItHDshXoNdx86V0tzH-98" value="" style="edgeStyle=orthogonalEdgeStyle;rounded=0;orthogonalLoop=1;jettySize=auto;html=1;" edge="1" parent="WIyWlLk6GJQsqaUBKTNV-1" source="hpItHDshXoNdx86V0tzH-95" target="hpItHDshXoNdx86V0tzH-97">
          <mxGeometry relative="1" as="geometry" />
        </mxCell>
        <mxCell id="hpItHDshXoNdx86V0tzH-95" value="return number" style="rounded=0;whiteSpace=wrap;html=1;fillColor=#dae8fc;strokeColor=#6c8ebf;" vertex="1" parent="WIyWlLk6GJQsqaUBKTNV-1">
          <mxGeometry x="215" y="1260" width="130" height="40" as="geometry" />
        </mxCell>
        <mxCell id="hpItHDshXoNdx86V0tzH-97" value="end &lt;br&gt;funtion input_data" style="ellipse;whiteSpace=wrap;html=1;fillColor=#dae8fc;strokeColor=#6c8ebf;rounded=0;" vertex="1" parent="WIyWlLk6GJQsqaUBKTNV-1">
          <mxGeometry x="130" y="1340" width="300" height="60" as="geometry" />
        </mxCell>
      </root>
    </mxGraphModel>
  </diagram>
</mxfile>
